<?xml version="1.0" encoding="UTF-8"?>
<svg id="Layer_2" data-name="Layer 2" xmlns="http://www.w3.org/2000/svg" viewBox="0 0 215.81 97.47">
  <defs>
    <style>
      .cls-1 {
        fill: #ed1c24;
      }

      .cls-1, .cls-2 {
        fill-rule: evenodd;
      }

      .cls-2 {
        fill: #231f20;
        stroke: #ecf2fa;
      }

      .cls-2, .cls-3 {
        stroke-miterlimit: 10;
        stroke-width: .5px;
      }

      .cls-3 {
        fill: #ecf2fa;
        stroke: #000;
      }
    </style>
  </defs>
  <g id="Layer_1-2" data-name="Layer 1">
    <g>
      <g>
        <path class="cls-1" d="m83.07,41.29s-5.42-1.26-10.2,2.83c-1.04.89-4.88,5.35-1.52,13.21.23.54-7.52-.44-7.52-.44,0,0-10.51-1.49-14-2.06-3.86-.64-7.43-2.35-9.63-3.69-1.28-.78-3.54-2.37-4.61-3.58-.8-.9-4.99-5.83-4.99-5.83,0,0-1.68-2.61-3.56-4.21-.89-.76-2.43-1.61-3.29-2.06-.14-.07-.08-.28.08-.27l3.64-.37s4.24,0,5.15.27c1.49.46,3.5,2.86,4.48,3.58,2.84,2.08,4.54,2.56,4.54,2.56,0,0,4.49,1.69,5.45,1.97,3.24.93,5.49,1.22,7.14,1.36,3.56.3,9.75-.55,11.93-.86.23-.03-8.18.09-9.17.06-1.95-.07-2.67-.13-6.23-.93,0,0-5.1-1.49-6.57-1.97-1.73-.57-4.26-1.73-6.44-3.38-1.91-1.45-2.96-3.51-2.96-3.51l3.07-.64s2.61-.56,3.59-.27c5.48,1.67,17.78,4.5,17.78,4.5,0,0,8.16,1.64,12.84.93.59-.09,7.98-1.84,7.98-1.84,0,0-8.13-4.86-10.8-6.14-8.26-3.97-16.3-2.24-17.04-2.15-10.15,1.16-11.41,1.69-11.63,1.73-5.52,1.17-15.08,3.76-17.86,4.39-1.99.44-3.95.5-4.89,1.23-1.23.95-1.37,3.59-1.27,4.83.1,1.34.87,5.32.87,5.32,0,0-.03-3.12,1.24-4.9.11-.15.24-.3.37-.45.53,2.51.57,7.59.31,9.96h0c-.08.74-.39,2.1.13,2.54.15.13.35.16.5,0,.3-.3.26-1.25.26-1.82,0-1.18-.08-2.4-.19-3.54-.16-1.65-.77-5.21-.51-6.62.1-.55.33-.79.64-.69.39.13.43.6.43,1.23,0,1.43-.16,2.84-.16,4.32,0,.51.04,1.04.21,1.32.06.09.22.27.33.16.09-.09.13-.33.15-.57.03-.45-.06-1.05-.12-1.47-.07-.53-.11-1.04-.12-1.61,0-.5.02-1.14.33-1.08.46.1.4,1.22.33,1.85-.03.24-.09.53-.03.76.13.5.56.45.48-.2-.03-.22-.08-.43-.11-.68-.03-.24-.07-.52-.08-.77-.05-.66-.23-3.12.18-3.46.17-.14.34.06.41.24.28.7-.08,2.77.12,3.35.08.21.35.25.37-.35.03-.94-.42-2.63-.07-3.25.12-.22.39-.23.54-.06.21.23.17.73.26.81.09-.08.11-.62.19-1.01.18-.83.42-.69.55-1.01.06-.14.09-.31.13-.48.06.03.12.06.18.1.7.52,2.29,1.82,2.95,2.62.76.92.65.76,1.37,1.64,1.32,1.62,6.41,6.92,6.41,6.92.48.33,2.67,2.65,6.62,4.48,0,0,5.13,2.05,10.5,2.82,3.85.55,14.29,2.42,14.29,2.42l8.35,1.01s-2.1-4.51-2.37-5.31c-.64-1.92-.64-6.48,1.99-9.8.86-1.09,4.01-2.39,5.29-2.43,3.06-.1,4.26.75,5.43,1.54,2.2,1.49,2.66,2.56,3.33,3.58,1.81,2.79,2.38,5.8,2.38,5.8,0,0,.48,3.47.51,4.9.01.75,0,2.01.17,1.59.4-.99.76-3.96.76-5.3,0-1.36-.4-2.66-.59-3.54-2.16-9.73-9.02-10.12-9.02-10.12Z"/>
        <path class="cls-1" d="m85.58,37.29l17.57-.03s8.58.08,9.9-.68c.3-.17-13.14-5.51-22.28-8.14-1.92-.55-3.94-.33-7.77-.5-3.11-.14-12.02.25-12.66.5-.9.35,15.23,8.85,15.23,8.85Z"/>
        <path class="cls-1" d="m106.73,47.55l6.78.49s-.17-1.84-2.16-2.78c-.88-.41-3.79-.81-3.79-.81l-4.75-.81-5.44-.88s4.66,3.34,6.41,4.08c.7.29,2.94.7,2.94.7Z"/>
        <path class="cls-1" d="m135.44,51.66s-.93,1.28-1.01,4.31c-.03,1.2-3.24,1.22-7.84,1.77-1.42.17-4.37.29-5.72-.19-.76-.27-1.89-1.62-2.67-1.84-3.91-1.14-14.89-2.16-14.89-2.16,0,0,1.52,2.77,4.47,4.68.25.16.6.29.98.4.04.03.08.05.09.05.16.08.31.16.5.23.59.2,1.07.04,1.4.79.11.25.27,1.02.67.56.16-.18.28-.19.42.09,1.12,2.18,1.25,8,.78,10.59h0c-.14.74-.65,2.1.21,2.54.25.13.58.16.83,0,.49-.3.44-1.25.43-1.82,0-1.18-.13-2.4-.31-3.54-.27-1.65-1.28-5.21-.85-6.62.16-.55.56-.79,1.07-.69.64.13.71.6.72,1.23.01,1.43-.27,2.84-.26,4.32,0,.51.06,1.04.34,1.32.09.09.36.27.55.16.15-.09.22-.33.25-.57.04-.45-.1-1.05-.2-1.47-.12-.53-.19-1.04-.19-1.61,0-.5.04-1.14.55-1.08.76.1.67,1.22.55,1.85-.04.24-.15.53-.05.76.21.5.94.45.8-.2-.05-.22-.14-.43-.19-.68-.05-.24-.11-.52-.14-.77-.08-.66-.39-3.12.3-3.46.29-.14.57.06.69.24.47.7-.13,2.77.21,3.35.13.21.59.25.62-.35.05-.94-.69-2.63-.12-3.25.21-.22.65-.23.9-.06.35.23.29.73.44.81.14-.08.18-.62.32-1.01.07-.21.15-.35.24-.46,4.38.18,6.85-.19,6.85-.19,0,0,6.31-.61,7.86-1.65.82-.55,1.41-1,1.33-2.5-.18-3.62-.93-3.9-.93-3.9Z"/>
        <path class="cls-1" d="m125.93,43.23c1.14.96,2,2.42,1.92,2.28l1.24.68s.22-.79-1.16-2.43c-.36-.42-1.67-1.45-1.67-1.45l-2.81-1.22s-.07.03-.04.06c.41.33,1.42,1.14,2.52,2.08Z"/>
        <path class="cls-1" d="m50.82,49.88c-3.76-1.18-5.15-2.01-6.74-2.92-2.01-1.16-4.49-3.18-4.49-3.18,0,0-3.32-2.81-4.34-3.83-1.66-1.65-2.46-1.92-3.28-2.56-1.12-.88-3.81-1.44-3.81-1.44l-.11-.04s3.02,1.53,5.53,3.98c.51.5,2.08,1.95,2.08,1.95,0,0,3.18,3.41,5.91,5.4,1.31.96,4.24,2.41,5.76,2.99,1.66.63,5.13,1.44,6.89,1.72,1.84.29,5.6.6,7.46.4,2.97-.31,4.66-.66,4.66-.66,0,0-6.72-.13-8.87-.4-1.73-.22-5.02-.89-6.64-1.4Z"/>
      </g>
      <path class="cls-2" d="m42.96,74.58c-17.49,0-31.67-14.18-31.67-31.67s14.18-31.67,31.67-31.67c7.32,0,14.06,2.48,19.42,6.65h8.6c-1.73-1.94-3.63-3.67-5.67-5.18l1.82-5.13-6.03-3.45-3.49,4.18c-3.26-1.38-6.7-2.29-10.21-2.71l-.96-5.36h-6.95l-.96,5.35c-3.8.45-7.57,1.49-11.19,3.15l-3.61-4.08-5.93,3.62,1.97,5.08c-2.84,2.22-5.29,4.8-7.31,7.62l-5.15-1.75-3.36,6.08,4.23,3.44c-1.33,3.28-2.19,6.73-2.56,10.25l-5.35,1.04.1,6.95,5.37.88c.46,3.45,1.4,6.87,2.86,10.17l-4.13,3.55,3.53,5.98,5.11-1.9c2.19,2.88,4.73,5.36,7.52,7.42l-1.82,5.13,6.03,3.45,3.49-4.18c3.26,1.38,6.7,2.29,10.21,2.71l.96,5.36h6.95l.96-5.35c.51-.06,1.03-.14,1.54-.22,1.18,3.35,1.29,10.37.72,13.63h0c-.18,1-.84,2.84.28,3.44.32.17.76.21,1.08,0,.64-.41.57-1.7.56-2.46-.01-1.6-.17-3.25-.41-4.79-.34-2.23-1.66-7.05-1.11-8.96.21-.74.72-1.07,1.39-.93.83.17.92.81.93,1.67.02,1.93-.35,3.85-.34,5.85,0,.69.08,1.41.44,1.79.12.13.47.37.71.22.19-.12.29-.44.32-.77.06-.62-.13-1.42-.26-1.99-.16-.71-.24-1.4-.25-2.18,0-.67.05-1.55.72-1.46.99.14.87,1.66.72,2.5-.06.32-.19.71-.06,1.03.28.68,1.22.61,1.04-.27-.06-.3-.18-.58-.25-.92-.07-.33-.14-.71-.18-1.04-.1-.89-.5-4.22.39-4.69.37-.19.74.08.9.32.62.94-.17,3.75.27,4.54.16.29.76.34.8-.47.06-1.27-.9-3.56-.15-4.4.27-.3.85-.31,1.17-.08.45.31.37.99.57,1.1.19-.11.23-.84.41-1.36.15-.43.31-.66.48-.82l2.35,2.65,5.93-3.62-1.97-5.08c1.67-1.31,3.21-2.74,4.61-4.27h-8.71c-5.31,4.02-11.92,6.4-19.09,6.4Z"/>
    </g>
    <g>
      <path class="cls-3" d="m166.34,41.56c-.12,2.72-2.66,4.2-3.29,4.44l-.03.15c2.57.7,3.63,3.02,3.36,5.26-.48,3.93-4.05,7.1-9.76,6.86-5.41-.18-7.89-3.93-7.89-7.86,0-4.84,3.42-8.89,6.86-9.07.51-.03.63.33.42.67-1.21,1.51-2.3,4.99-2.3,8.01,0,2.69,1,4.96,3.51,4.96,2.24,0,3.72-1.66,3.99-3.78.33-2.69-1.36-3.72-1.36-3.72-2.66.91-3.11-.21-3.02-.94.09-.67.82-1.6,2.78-1.21.06-.06,1.36-.91,1.51-2.81.21-2.48-2.33-3.72-5.68-3.72-4.14-.03-8.25,2.3-8.77,4.93-.24,1.03.06,1.72.06,2.06,0,.48-1.15,1.21-2.51,1.21-1.84,0-3.29-1.48-3.11-3.48.42-4.72,7.62-7.68,14.48-7.71,3.96,0,11.06,1.03,10.76,5.74Z"/>
      <path class="cls-3" d="m192.76,44.48c-.03.18-.12.3-.27.36-.48.06-1.06.15-1.84.51-2.21.97-4.2,4.44-5.96,6.8,1.39,1.57,3.05,2.6,5.05,3.2.88.39,1.15.48,1.12.73-.06.48-1.12.97-2.05.97-1.75,0-4.38-.97-6.5-2.6-1.06.85-3.36,2.63-6.2,2.63-4.02-.12-5.89-2.63-5.71-5.53.18-3.36,2.96-5.2,5.32-5.71-.63-1.33-.97-2.78-.97-4.17,0-4.02,2.84-6.8,7.53-6.77,3.39.06,5.44,2,5.26,4.02-.06,1.36-1,3.11-2.96,3.11-1.15,0-1.81-.54-1.81-.91.06-.33.45-.97.48-1.87.03-1.3-.57-1.87-1.36-1.87-1.6,0-2.24,2-2.24,4.05,0,3.35,1.54,6.2,2.24,6.95h.12c2.24-3.45,4.44-6.98,7.71-6.86,2.27.03,3.14,1.9,3.05,2.96Zm-13.33,7.22c-1.03-1.18-2.03-2.48-2.87-3.99-1.03.15-2.54,1.15-2.6,2.69-.09,1.78,1.21,2.72,2.54,2.75,1.21.03,2.12-.63,2.93-1.45Z"/>
      <path class="cls-3" d="m215.01,47.21c-.03.21-.69,6.05-1.12,9.55-.45,3.69-1.93,6.02-5.65,6.02-1,0-2.12-.39-2.09-.91.03-.7,1.03-.3,1.93-1.57.6-.79,1-2.12,1.3-4.69l-.06-.03c-1.06.63-2.99,1.3-4.35,1.3-6.23,0-9.4-4.44-8.62-10.97.7-5.59,4.93-11.12,11.85-11.21,4.41-.03,7.71,2.24,7.32,5.59-.18,1.39-.94,2.93-3.11,2.93-1.12,0-2.27-.63-2.09-1.12.51-1.78.33-4.32-2.81-4.32-2.6,0-5.26,3.11-5.83,7.62-.51,4.23,1.09,7.62,5.08,7.62,1.51,0,2.6-.76,2.99-.85.06-.63.39-3.23.57-4.9.03-.12.09-.21.21-.21.91-.15,1.6-.24,2.27-.24.57,0,1.24.06,2.06.18.18.03.15.18.15.21Z"/>
    </g>
  </g>
</svg>